HIERARCHY
ROOT Hips
{
	OFFSET 0.00000 0.00000 0.00000
	CHANNELS 6 Xposition Yposition Zposition Zrotation Yrotation Xrotation 
	JOINT LHipJoint
	{
		OFFSET 0 0 0
		CHANNELS 3 Zrotation Yrotation Xrotation
		JOINT LeftUpLeg
		{
			OFFSET 1.62964 -1.40469 0.78906
			CHANNELS 3 Zrotation Yrotation Xrotation
			JOINT LeftLeg
			{
				OFFSET 2.29640 -6.30932 0.00000
				CHANNELS 3 Zrotation Yrotation Xrotation
				JOINT LeftFoot
				{
					OFFSET 2.29451 -6.30412 0.00000
					CHANNELS 3 Zrotation Yrotation Xrotation
					JOINT LeftToeBase
					{
						OFFSET 0.03611 -0.09921 1.56387
						CHANNELS 3 Zrotation Yrotation Xrotation
						End Site
						{
							OFFSET 0.00000 -0.00000 0.80291
						}
					}
				}
			}
		}
	}
	JOINT RHipJoint
	{
		OFFSET 0 0 0
		CHANNELS 3 Zrotation Yrotation Xrotation
		JOINT RightUpLeg
		{
			OFFSET -1.73712 -1.40469 0.78906
			CHANNELS 3 Zrotation Yrotation Xrotation
			JOINT RightLeg
			{
				OFFSET -2.28137 -6.26801 0.00000
				CHANNELS 3 Zrotation Yrotation Xrotation
				JOINT RightFoot
				{
					OFFSET -2.28681 -6.28298 0.00000
					CHANNELS 3 Zrotation Yrotation Xrotation
					JOINT RightToeBase
					{
						OFFSET -0.15927 -0.43759 1.61103
						CHANNELS 3 Zrotation Yrotation Xrotation
						End Site
						{
							OFFSET -0.00000 -0.00000 0.84630
						}
					}
				}
			}
		}
	}
	JOINT LowerBack
	{
		OFFSET 0 0 0
		CHANNELS 3 Zrotation Yrotation Xrotation
		JOINT Spine
		{
			OFFSET -0.04227 2.04338 -0.00225
			CHANNELS 3 Zrotation Yrotation Xrotation
			JOINT Spine1
			{
				OFFSET -0.02148 2.04482 -0.04273
				CHANNELS 3 Zrotation Yrotation Xrotation
				JOINT Neck
				{
					OFFSET 0 0 0
					CHANNELS 3 Zrotation Yrotation Xrotation
					JOINT Neck1
					{
						OFFSET 0.09180 1.44629 0.19359
						CHANNELS 3 Zrotation Yrotation Xrotation
						JOINT Head
						{
							OFFSET 0.00887 1.40645 0.14750
							CHANNELS 3 Zrotation Yrotation Xrotation
							End Site
							{
								OFFSET -0.00669 1.50671 0.03707
							}
						}
					}
				}
				JOINT LeftShoulder
				{
					OFFSET 0 0 0
					CHANNELS 3 Zrotation Yrotation Xrotation
					JOINT LeftArm
					{
						OFFSET 2.17674 1.86763 -0.06520
						CHANNELS 3 Zrotation Yrotation Xrotation
						JOINT LeftForeArm
						{
							OFFSET 4.65776 -0.00000 0.00000
							CHANNELS 3 Zrotation Yrotation Xrotation
							JOINT LeftHand
							{
								OFFSET 3.55539 -0.00000 0.00000
								CHANNELS 3 Zrotation Yrotation Xrotation
								JOINT LeftFingerBase
								{
									OFFSET 0 0 0
									CHANNELS 3 Zrotation Yrotation Xrotation
									JOINT LeftHandIndex1
									{
										OFFSET 0.70726 -0.00000 0.00000
										CHANNELS 3 Zrotation Yrotation Xrotation
										End Site
										{
											OFFSET 0.57022 -0.00000 0.00000
										}
									}
								}
								JOINT LThumb
								{
									OFFSET 0 0 0
									CHANNELS 3 Zrotation Yrotation Xrotation
									End Site
									{
										OFFSET 0.57892 -0.00000 0.57892
									}
								}
							}
						}
					}
				}
				JOINT RightShoulder
				{
					OFFSET 0 0 0
					CHANNELS 3 Zrotation Yrotation Xrotation
					JOINT RightArm
					{
						OFFSET -2.80694 1.55459 -0.32496
						CHANNELS 3 Zrotation Yrotation Xrotation
						JOINT RightForeArm
						{
							OFFSET -4.71925 -0.00000 -0.00000
							CHANNELS 3 Zrotation Yrotation Xrotation
							JOINT RightHand
							{
								OFFSET -3.56990 -0.00000 0.00000
								CHANNELS 3 Zrotation Yrotation Xrotation
								JOINT RightFingerBase
								{
									OFFSET 0 0 0
									CHANNELS 3 Zrotation Yrotation Xrotation
									JOINT RightHandIndex1
									{
										OFFSET -0.50776 -0.00000 0.00000
										CHANNELS 3 Zrotation Yrotation Xrotation
										End Site
										{
											OFFSET -0.40937 -0.00000 0.00000
										}
									}
								}
								JOINT RThumb
								{
									OFFSET 0 0 0
									CHANNELS 3 Zrotation Yrotation Xrotation
									End Site
									{
										OFFSET -0.41562 -0.00000 0.41562
									}
								}
							}
						}
					}
				}
			}
		}
	}
}
MOTION
Frames: 5
Frame Time: .0083333
9.8350 16.4671 4.0032 176.2360 1.2015 -161.7540 0.0000 0.0000 0.0000 -6.6272 -22.1114 -81.8845 18.1914 19.9214 84.7055 0.9425 -0.5524 -18.1740 3.1098 -10.8707 -31.8452 0.0000 0.0000 0.0000 18.9053 14.1719 -16.3766 -0.3263 -3.6712 10.1534 -0.9720 -1.6459 -19.2881 -3.2449 11.0813 -32.5544 -6.3468 -0.8485 -17.4485 -0.9806 0.5058 3.8515 2.6533 -0.2306 14.2099 0.2820 -2.4390 -3.8642 2.6576 -2.5759 20.3199 0.6887 -0.5001 6.8527 -0.0000 -0.0000 0.0000 -84.5291 2.9847 16.5212 12.2220 -20.1367 -2.1781 -0.0000 -0.0000 4.2656 20.1763 -11.8459 -4.3138 -7.1250 0.0000 -0.0000 -4.8875 17.4116 3.2128 -0.0000 -0.0000 0.0000 89.1668 -0.2454 16.9639 -26.8501 38.0359 -9.4066 0.0000 -0.0000 -6.0581 -11.6118 -51.2311 9.1021 7.1250 -0.0000 -0.0000 60.5658 -74.9599 -46.2885
9.8401 16.4633 3.9468 176.2090 1.2345 -161.7370 0.0000 0.0000 0.0000 -6.5412 -22.0845 -82.0743 17.7614 19.8794 83.4421 0.9207 -0.6008 -17.9452 3.0125 -10.7152 -31.3254 0.0000 0.0000 0.0000 18.9402 14.3936 -16.2393 -0.3482 -3.7916 10.4912 -1.0135 -1.8248 -19.7588 -3.1870 10.9918 -32.2522 -6.4052 -0.8042 -17.3988 -1.0297 0.5870 3.9064 2.6544 -0.1961 14.2379 0.0432 -0.7825 -3.8292 3.3173 -3.1433 20.0664 0.7780 -1.7727 6.7904 -0.0000 -0.0000 0.0000 -84.4617 2.7506 16.0637 12.0582 -19.8919 -2.1221 -0.0000 -0.0000 4.5120 20.0120 -11.7251 -4.2329 -7.1250 0.0000 -0.0000 -4.9993 17.5530 3.2713 -0.0000 -0.0000 0.0000 89.1823 -0.0096 17.2475 -26.9327 38.1149 -9.4575 0.0000 -0.0000 -5.9341 -11.3356 -51.6624 8.9360 7.1250 -0.0000 -0.0000 62.2354 -75.0236 -47.8260
9.8395 16.4584 3.8874 176.1960 1.2589 -161.8020 0.0000 0.0000 0.0000 -6.5380 -22.0986 -82.1015 17.3380 19.8293 82.1956 0.9260 -0.9131 -17.9031 2.4162 -9.6838 -27.9589 0.0000 0.0000 0.0000 19.0219 14.2703 -15.9865 -0.3555 -3.8305 10.6003 -1.0500 -1.7560 -20.0661 -3.1087 10.8689 -31.8390 -6.3858 -0.7634 -17.2556 -1.0794 0.6366 3.9444 2.6008 -0.1669 14.1920 0.0564 -0.8612 -3.7535 3.2889 -3.2179 19.8818 0.7640 -1.8056 6.7184 -0.0000 0.0000 0.0000 -84.4258 2.7201 15.7848 12.0106 -19.8205 -2.1059 -0.0000 -0.0000 4.5842 20.0577 -11.6624 -4.2211 -7.1250 0.0000 -0.0000 -4.9659 17.6153 3.2425 -0.0000 0.0000 0.0000 89.1783 0.0344 17.6043 -27.0559 38.2324 -9.5337 0.0000 -0.0000 -5.9511 -10.5151 -51.9745 8.3185 7.1250 -0.0000 -0.0000 63.7890 -74.8273 -48.9955
9.8368 16.4543 3.8249 176.1410 1.2877 -161.8640 0.0000 0.0000 0.0000 -6.6330 -22.1299 -82.0087 16.9305 19.7726 80.9927 0.9057 -0.9064 -17.7043 2.3624 -9.5833 -27.6376 0.0000 0.0000 0.0000 19.0354 14.1000 -15.7064 -0.3569 -3.8383 10.6222 -1.0792 -1.5893 -20.2595 -3.1327 10.9069 -31.9664 -6.4347 -0.7762 -17.1883 -1.1118 0.6335 3.9732 2.5907 -0.1700 14.1863 0.3581 -0.7015 -3.3563 2.8955 -2.9256 19.6349 0.6134 -1.6780 6.5549 0.0000 0.0000 0.0000 -84.4717 2.8599 15.5901 12.0438 -19.8703 -2.1172 -0.0000 -0.0000 4.6166 20.2326 -11.6321 -4.2501 -7.1250 0.0000 -0.0000 -4.8428 17.6324 3.1597 0.0000 0.0000 0.0000 89.0910 0.0705 17.9737 -27.0906 38.2654 -9.5552 0.0000 -0.0000 -6.0133 -10.0091 -51.6990 7.8855 7.1250 -0.0000 -0.0000 63.1229 -74.5351 -48.0875
9.8359 16.4517 3.7637 176.0780 1.2554 -161.8530 0.0000 0.0000 0.0000 -6.6353 -22.2184 -81.8913 16.5021 19.7041 79.7240 0.8279 -0.5341 -17.0239 2.6912 -10.1775 -29.5535 0.0000 0.0000 0.0000 19.0273 13.9969 -15.5382 -0.3657 -3.8843 10.7515 -1.1117 -1.5144 -20.5207 -3.2046 11.0191 -32.3445 -6.4960 -0.7839 -17.2321 -1.1515 0.6529 4.0388 2.5861 -0.1671 14.2901 0.2721 -0.6974 -3.7624 2.8776 -2.9804 20.1896 0.6097 -1.7150 6.8062 0.0000 0.0000 0.0000 -84.4470 2.7551 15.4207 11.9844 -19.7812 -2.0970 -0.0000 -0.0000 4.7981 20.3860 -11.7444 -4.3257 -7.1250 0.0000 -0.0000 -4.7384 17.5008 3.1048 0.0000 0.0000 0.0000 89.0478 0.1720 18.2599 -27.2482 38.4149 -9.6530 0.0000 -0.0000 -6.1262 -10.0084 -51.9181 7.9084 7.1250 -0.0000 -0.0000 63.8731 -74.6156 -48.8411
